<svg width="395.52" viewBox="-5.099999904632568 -31.850000381469727 217.6716766357422 41.04999923706055" height="74.5826944752972" data-palette-color="#7e21d4">
    <path d="M3.3-26.55Q3.3-27.15 3.75-27.7 4.2-28.25 4.7-28.2L4.7-28.2Q5.7-28.15 6.2-27.15 6.7-26.15 6.15-25.25L6.15-25.25Q5.5-24.35 5.5-24.3L5.5-24.3Q3.3-25.1 3.3-26.55L3.3-26.55ZM-5.1 6.45Q1.1 6.75 2.3 5.35L2.3 5.35Q3.15 4.8 3.43 3.45 3.7 2.1 3.65-0.28 3.6-2.65 3.65-3.05L3.65-3.05Q4.25-11.55 3.6-14.85L3.6-14.85Q3.35-16.1 3.75-17.35 4.15-18.6 5.05-18.8L5.05-18.8Q5.8-18.5 6.25-17.8 6.7-17.1 6.8-15.98 6.9-14.85 6.9-13.88 6.9-12.9 6.8-11.45 6.7-10 6.7-9.3L6.7-9.3Q6.7-2.95 5.5 3.7L5.5 3.7Q5.35 4.7 5.13 5.43 4.9 6.15 4.5 6.9 4.1 7.65 3.58 8.13 3.05 8.6 2.25 8.9 1.45 9.2 0.4 9.2L0.4 9.2Q-2.4 9.2-4.65 7.8L-4.65 7.8Q-4.9 7.45-5.1 6.45L-5.1 6.45ZM28.05-14.05Q28.1-15.6 27.75-16.9 27.4-18.2 26.45-18.93 25.5-19.65 24.15-19.2L24.15-19.2Q20.2-17.85 17.45-15L17.45-15Q16.55-14.15 15.82-14.68 15.1-15.2 15.1-16.3L15.1-16.3Q15.1-17.15 16.02-17.98 16.95-18.8 18-19.33 19.05-19.85 20.55-20.53 22.05-21.2 22.55-21.45L22.55-21.45Q23.75-22.15 24.37-22.4 25-22.65 25.77-22.68 26.55-22.7 27.4-22.3L27.4-22.3Q28-22.05 28.45-21.2L28.45-21.2Q31.25-16.2 31.25-11.65L31.25-11.65Q31.25-11.15 32.22-8.78 33.2-6.4 33.2-5.75L33.2-5.75Q33.2-5 32.77-4.2 32.35-3.4 31.75-3.4L31.75-3.4Q31-3.45 30.5-3.88 30-4.3 29.77-4.78 29.55-5.25 29.25-6.15L29.25-6.15Q28.55-5.9 26.9-5.2 25.25-4.5 24.32-4.17 23.4-3.85 22.02-3.38 20.65-2.9 19.47-2.7 18.3-2.5 17.15-2.5L17.15-2.5Q13.3-2.5 11.85-5.35L11.85-5.35Q11.6-6.15 11.57-6.78 11.55-7.4 12.02-8.08 12.5-8.75 13-9.22 13.5-9.7 14.27-10.2 15.05-10.7 15.67-11.05 16.3-11.4 17-11.65L17-11.65Q20.5-13.25 27-13.9L27-13.9Q27.7-14 28.05-14.05L28.05-14.05ZM14.6-6.15Q16.65-5.6 18.55-5.58 20.45-5.55 22.42-6.1 24.4-6.65 25.95-7.33 27.5-8 28.85-8.9L28.85-8.9Q27.75-10.55 25.42-11.03 23.1-11.5 20.82-10.93 18.55-10.35 16.7-9.05 14.85-7.75 14.6-6.15L14.6-6.15ZM39.6-6.95Q41.55-6.7 43.62-7.23 45.7-7.75 48.7-9.03 51.7-10.3 52.25-10.5L52.25-10.5Q52.55-10.5 53.37-11.03 54.2-11.55 54.97-12.05 55.75-12.55 56.67-12.8 57.6-13.05 58.1-12.5L58.1-12.5Q58.65-11.95 58.95-11.3L58.95-11.3Q57.85-10.7 56.3-9.85 54.75-9 54.17-8.68 53.6-8.35 52.57-7.83 51.55-7.3 50.6-6.88 49.65-6.45 48.35-5.9L48.35-5.9Q43.8-4 39.15-3.6L39.15-3.6Q37.85-3.45 37.25-4.33 36.65-5.2 36.7-6.6L36.7-6.6Q36.8-8.45 37.77-10.38 38.75-12.3 40.3-13.9 41.85-15.5 43.45-16.75 45.05-18 46.7-18.95L46.7-18.95Q48-19.75 48.97-19.3 49.95-18.85 49.95-17.4L49.95-17.4Q49.95-16.75 49.45-16.25 48.95-15.75 48.35-15.5 47.75-15.25 46.8-14.93 45.85-14.6 45.5-14.45L45.5-14.45Q43.75-13.7 41.82-11.3 39.9-8.9 39.6-6.95L39.6-6.95ZM62.79-18Q62.49-25.3 61.44-29.55L61.44-29.55Q61.49-31.2 62.69-31.85L62.69-31.85 62.84-31.65Q62.99-31.5 63.12-31.45 63.24-31.4 63.49-31.45L63.49-31.45Q64.09-31.2 64.54-30.2 64.99-29.2 65.04-28.3L65.04-28.3Q65.19-26.2 65.44-21.98 65.69-17.75 65.84-15.65L65.84-15.65Q66.39-15.95 66.72-16.13 67.04-16.3 67.34-16.48 67.64-16.65 67.89-16.85 68.14-17.05 68.34-17.18 68.54-17.3 68.92-17.65 69.29-18 69.52-18.2 69.74-18.4 70.37-19 70.99-19.6 71.39-20L71.39-20Q71.79-20.4 72.32-21.1 72.84-21.8 73.29-22.25 73.74-22.7 74.34-22.85L74.34-22.85Q74.69-22.95 75.02-22.38 75.34-21.8 75.39-21.1L75.39-21.1Q75.44-20.8 75.27-20.45 75.09-20.1 74.92-19.83 74.74-19.55 74.34-19.18 73.94-18.8 73.72-18.6 73.49-18.4 73.09-18.05 72.69-17.7 72.59-17.6L72.59-17.6Q71.29-16.55 70.32-15.68 69.34-14.8 69.02-14.5 68.69-14.2 68.07-13.73 67.44-13.25 66.24-12.45L66.24-12.45Q68.24-11.3 73.32-9.53 78.39-7.75 80.04-6.95L80.04-6.95Q80.79-6.6 81.14-5.93 81.49-5.25 81.19-4.73 80.89-4.2 79.99-4.1L79.99-4.1Q79.69-4.05 79.22-4.2 78.74-4.35 78.07-4.65 77.39-4.95 77.29-5L77.29-5Q77.04-5.1 75.79-5.6 74.54-6.1 73.52-6.48 72.49-6.85 71.22-7.33 69.94-7.8 68.92-8.05 67.89-8.3 67.29-8.3L67.29-8.3Q66.39-8.3 65.44-8.1L65.44-8.1Q66.04-5.8 65.04-4.2L65.04-4.2Q63.09-5 62.64-6.8L62.64-6.8Q61.89-10 61.69-11.75L61.69-11.75Q61.79-12.3 62.14-13.55 62.49-14.8 62.67-15.85 62.84-16.9 62.79-18L62.79-18ZM101.24-0.25Q100.39-0.45 99.82-1.15 99.24-1.85 99.02-2.95 98.79-4.05 98.74-5.05 98.69-6.05 98.64-7.48 98.59-8.9 98.49-9.7L98.49-9.7Q97.94-9.4 95.07-7.75 92.19-6.1 90.59-5.35L90.59-5.35Q87.69-4 85.44-3.9L85.44-3.9Q84.19-3.85 83.04-4.73 81.89-5.6 81.84-6.7L81.84-6.7Q81.84-8.4 84.64-10.15L84.64-10.15Q85.69-10.8 87.77-12.18 89.84-13.55 90.79-14.13 91.74-14.7 93.34-15.5 94.94-16.3 96.54-16.8L96.54-16.8Q98.44-17.5 98.97-18.45 99.49-19.4 99.29-21.95L99.29-21.95Q99.29-22.15 99.27-22.78 99.24-23.4 99.22-23.75 99.19-24.1 99.19-24.68 99.19-25.25 99.27-25.6 99.34-25.95 99.47-26.33 99.59-26.7 99.87-26.88 100.14-27.05 100.49-27.1L100.49-27.1Q101.19-27.15 101.57-26.83 101.94-26.5 101.99-25.8 102.04-25.1 102.02-24.6 101.99-24.1 101.84-23.13 101.69-22.15 101.69-21.95L101.69-21.95Q101.39-19.3 101.37-16 101.34-12.7 101.44-8.45 101.54-4.2 101.54-2.4L101.54-2.4Q101.54-1.25 101.24-0.25L101.24-0.25ZM85.09-6.95Q86.54-6.7 88.04-7.1 89.54-7.5 91.72-8.55 93.89-9.6 94.14-9.7L94.14-9.7Q94.49-9.85 95.27-10.1 96.04-10.35 96.54-10.53 97.04-10.7 97.59-11.05 98.14-11.4 98.44-11.88 98.74-12.35 98.74-13L98.74-13Q98.74-13.7 98.49-14.45L98.49-14.45Q92.04-13.2 85.09-6.95L85.09-6.95ZM121.79-14.05Q121.84-15.6 121.49-16.9 121.14-18.2 120.19-18.93 119.24-19.65 117.89-19.2L117.89-19.2Q113.94-17.85 111.19-15L111.19-15Q110.29-14.15 109.56-14.68 108.84-15.2 108.84-16.3L108.84-16.3Q108.84-17.15 109.76-17.98 110.69-18.8 111.74-19.33 112.79-19.85 114.29-20.53 115.79-21.2 116.29-21.45L116.29-21.45Q117.49-22.15 118.11-22.4 118.74-22.65 119.51-22.68 120.29-22.7 121.14-22.3L121.14-22.3Q121.74-22.05 122.19-21.2L122.19-21.2Q124.99-16.2 124.99-11.65L124.99-11.65Q124.99-11.15 125.96-8.78 126.94-6.4 126.94-5.75L126.94-5.75Q126.94-5 126.51-4.2 126.09-3.4 125.49-3.4L125.49-3.4Q124.74-3.45 124.24-3.88 123.74-4.3 123.51-4.78 123.29-5.25 122.99-6.15L122.99-6.15Q122.29-5.9 120.64-5.2 118.99-4.5 118.06-4.17 117.14-3.85 115.76-3.38 114.39-2.9 113.21-2.7 112.04-2.5 110.89-2.5L110.89-2.5Q107.04-2.5 105.59-5.35L105.59-5.35Q105.34-6.15 105.31-6.78 105.29-7.4 105.76-8.08 106.24-8.75 106.74-9.22 107.24-9.7 108.01-10.2 108.79-10.7 109.41-11.05 110.04-11.4 110.74-11.65L110.74-11.65Q114.24-13.25 120.74-13.9L120.74-13.9Q121.44-14 121.79-14.05L121.79-14.05ZM108.34-6.15Q110.39-5.6 112.29-5.58 114.19-5.55 116.16-6.1 118.14-6.65 119.69-7.33 121.24-8 122.59-8.9L122.59-8.9Q121.49-10.55 119.16-11.03 116.84-11.5 114.56-10.93 112.29-10.35 110.44-9.05 108.59-7.75 108.34-6.15L108.34-6.15ZM130.89-16.9Q130.94-18.25 130.71-20.05 130.49-21.85 130.21-23.18 129.94-24.5 129.94-25.95 129.94-27.4 130.44-28.3L130.44-28.3Q130.54-28.4 130.71-28.3 130.89-28.2 130.91-28.2 130.94-28.2 131.09-28.05L131.09-28.05 131.24-27.9Q131.84-27.35 132.24-26.5 132.64-25.65 132.79-24.28 132.94-22.9 132.96-22.1 132.99-21.3 132.96-19.38 132.94-17.45 132.94-17L132.94-17Q132.94-16.4 133.19-15.25L133.19-15.25Q133.34-15.4 134.19-16.07 135.04-16.75 135.31-16.95 135.59-17.15 136.34-17.7 137.09-18.25 137.46-18.48 137.84-18.7 138.54-19.1 139.24-19.5 139.71-19.65 140.19-19.8 140.81-19.95 141.44-20.1 141.99-20.1L141.99-20.1Q144.64-20.1 144.64-16L144.64-16Q144.64-14.15 144.91-10.88 145.19-7.6 145.19-7.2 145.19-6.8 145.56-6.43 145.94-6.05 146.34-5.9L146.34-5.9Q146.64-6.25 147.04-6.15L147.04-6.15Q147.34-6.1 147.96-5.95 148.59-5.8 148.76-5.78 148.94-5.75 149.31-5.63 149.69-5.5 149.76-5.38 149.84-5.25 150.04-5.03 150.24-4.8 150.34-4.53 150.44-4.25 150.59-3.8L150.59-3.8 145.44-2.55Q144.14-2.6 143.39-3.38 142.64-4.15 142.49-5.33 142.34-6.5 142.31-7.98 142.29-9.45 142.41-10.93 142.54-12.4 142.44-13.75L142.44-13.75Q142.39-14.4 142.31-14.83 142.24-15.25 142.14-15.75 142.04-16.25 141.84-16.5 141.64-16.75 141.34-16.95 141.04-17.15 140.59-17.1 140.14-17.05 139.49-16.8L139.49-16.8Q137.84-16.2 136.06-14.25 134.29-12.3 133.59-10.5L133.59-10.5Q133.24-9.55 133.04-7.05L133.04-7.05Q132.84-4.45 131.24-3.8L131.24-3.8Q130.44-5.45 130.29-7.45 130.14-9.45 130.51-12.78 130.89-16.1 130.89-16.9L130.89-16.9ZM168.83-14.05Q168.88-15.6 168.53-16.9 168.18-18.2 167.23-18.93 166.28-19.65 164.93-19.2L164.93-19.2Q160.98-17.85 158.23-15L158.23-15Q157.33-14.15 156.61-14.68 155.88-15.2 155.88-16.3L155.88-16.3Q155.88-17.15 156.81-17.98 157.73-18.8 158.78-19.33 159.83-19.85 161.33-20.53 162.83-21.2 163.33-21.45L163.33-21.45Q164.53-22.15 165.16-22.4 165.78-22.65 166.56-22.68 167.33-22.7 168.18-22.3L168.18-22.3Q168.78-22.05 169.23-21.2L169.23-21.2Q172.03-16.2 172.03-11.65L172.03-11.65Q172.03-11.15 173.01-8.78 173.98-6.4 173.98-5.75L173.98-5.75Q173.98-5 173.56-4.2 173.13-3.4 172.53-3.4L172.53-3.4Q171.78-3.45 171.28-3.88 170.78-4.3 170.56-4.78 170.33-5.25 170.03-6.15L170.03-6.15Q169.33-5.9 167.68-5.2 166.03-4.5 165.11-4.17 164.18-3.85 162.81-3.38 161.43-2.9 160.26-2.7 159.08-2.5 157.93-2.5L157.93-2.5Q154.08-2.5 152.63-5.35L152.63-5.35Q152.38-6.15 152.36-6.78 152.33-7.4 152.81-8.08 153.28-8.75 153.78-9.22 154.28-9.7 155.06-10.2 155.83-10.7 156.46-11.05 157.08-11.4 157.78-11.65L157.78-11.65Q161.28-13.25 167.78-13.9L167.78-13.9Q168.48-14 168.83-14.05L168.83-14.05ZM155.38-6.15Q157.43-5.6 159.33-5.58 161.23-5.55 163.21-6.1 165.18-6.65 166.73-7.33 168.28-8 169.63-8.9L169.63-8.9Q168.53-10.55 166.21-11.03 163.88-11.5 161.61-10.93 159.33-10.35 157.48-9.05 155.63-7.75 155.38-6.15L155.38-6.15ZM179.63-18.7Q178.88-10.8 179.68-7.35L179.68-7.35Q181.78-7.5 184.31-9.18 186.83-10.85 187.58-12.45L187.58-12.45Q188.13-13.25 188.41-16.63 188.68-20 189.18-20.75L189.18-20.75Q190.73-20.2 191.16-18.65 191.58-17.1 191.53-14.05L191.53-14.05Q191.53-13.65 191.73-12.28 191.93-10.9 191.93-10.5L191.93-10.5Q191.83-9.7 192.21-9.18 192.58-8.65 193.33-8.3 194.08-7.95 194.73-7.78 195.38-7.6 196.28-7.4L196.28-7.4Q196.53-7.4 196.63-7.35L196.63-7.35Q195.88-6.6 195.38-6.18 194.88-5.75 194.03-5.38 193.18-5 192.28-5L192.28-5Q190.23-5 189.38-6.8L189.38-6.8Q188.93-7.65 188.38-8.9L188.38-8.9Q182.38-4.15 179.33-4L179.33-4Q178.68-4 178.21-4.25 177.73-4.5 177.48-4.9 177.23-5.3 177.08-6 176.93-6.7 176.93-7.3 176.93-7.9 176.93-8.8L176.93-8.8Q177.03-13.3 176.48-19.4L176.48-19.4Q176.43-20.35 176.86-21.3 177.28-22.25 177.98-22.35L177.98-22.35Q178.63-22.4 179.18-21.05 179.73-19.7 179.63-18.7L179.63-18.7ZM199.63-12.45Q201.43-12.2 202.5-12.2 203.58-12.2 205.7-12.35 207.83-12.5 208.83-12.5L208.83-12.5Q211.03-12.5 212-11.75 212.98-11 212.28-9.3L212.28-9.3Q211.88-8.45 210.93-7.65 209.98-6.85 209.05-6.4 208.13-5.95 206.65-5.3 205.18-4.65 204.53-4.3L204.53-4.3Q203.48-3.75 202.68-3.73 201.88-3.7 200.83-4.2L200.83-4.2Q200.93-4.55 201.35-5.05 201.78-5.55 202.4-6.05 203.03-6.55 203.75-7.08 204.48-7.6 205.18-8.05 205.88-8.5 206.43-8.85 206.98-9.2 207.28-9.45 207.58-9.7 207.53-9.7L207.53-9.7Q206.68-9.9 203.3-9.45 199.93-9 199.43-9L199.43-9Q197.38-9 196.45-9.88 195.53-10.75 196.08-12.45L196.08-12.45Q196.53-14 198.13-15.4L198.13-15.4Q198.28-15.6 201.28-17.45 204.28-19.3 206.08-20.3L206.08-20.3Q207.13-20.9 207.8-21.15 208.48-21.4 209.23-21.35 209.98-21.3 210.68-20.75L210.68-20.75Q211.83-19.9 211.58-19.15 211.33-18.4 209.73-18L209.73-18Q204.18-16.45 199.63-12.45L199.63-12.45Z" opacity="1" transform="matrix(1,0,0,1,0,0)" fill="#7e21d4" class="wordmark-text-0" data-fill-palette-color="primary" id="text-0"></path>
</svg>